<svg width="701" height="674" viewBox="0 0 701 674" fill="none" xmlns="http://www.w3.org/2000/svg">
<path d="M470.211 23.9855C471.032 24.3319 471.852 24.6783 472.698 25.0353C507.359 39.805 539.972 59.6707 567.531 85.4894C569.802 87.6046 572.106 89.6527 574.461 91.673C577.881 94.634 581.045 97.799 584.215 101.025C586.126 102.902 588.101 104.634 590.148 106.36C594.958 110.482 599.062 115.213 603.211 119.985C602.551 120.315 601.891 120.645 601.211 120.985C598.656 119.607 598.656 119.607 595.336 117.423C594.417 116.822 594.417 116.822 593.481 116.209C588.971 113.231 584.555 110.127 580.145 107.003C540.289 78.7843 497.124 56.7527 450.211 42.9855C449.412 42.7499 448.612 42.5143 447.789 42.2716C434.77 38.4942 421.607 35.9998 408.211 33.9855C407.233 33.833 406.256 33.6806 405.249 33.5235C366.662 27.6687 326.298 30.0954 288.211 37.9855C287.202 38.1915 286.193 38.3976 285.154 38.61C259.517 43.9232 235.686 52.4271 212.211 63.9855C210.933 64.6139 210.933 64.6139 209.63 65.255C170.211 84.8633 132.046 113.949 106.211 149.985C105.338 151.134 104.461 152.28 103.582 153.423C80.6366 183.505 64.4331 218.032 54.8533 254.571C54.237 256.887 53.5822 259.188 52.9139 261.489C48.8479 275.77 46.6021 290.351 44.2107 304.985C72.5832 299.712 100.883 294.096 129.175 288.408C138.088 286.617 147.001 284.828 155.915 283.041C158.977 282.427 162.039 281.811 165.1 281.195C174.696 279.268 184.296 277.379 193.921 275.6C196.963 275.032 199.998 274.433 203.031 273.817C212.705 271.918 222.215 270.574 232.086 270.423C233.412 270.383 233.412 270.383 234.766 270.342C242.392 270.385 247.826 273.053 253.551 278.013C254.078 278.643 254.605 279.273 255.148 279.923C255.694 280.551 256.239 281.178 256.801 281.825C260.228 287.076 260.714 292.837 261.273 298.923C261.399 300.217 261.399 300.217 261.527 301.536C262.238 309.301 262.539 317.067 262.814 324.857C263.094 332.025 263.817 338.937 265.211 345.985C269.441 346.173 273.149 345.86 277.301 345.005C299.496 340.883 322.739 345.464 344.803 348.64C347.109 348.971 349.415 349.295 351.721 349.616C371.405 352.361 390.988 355.599 410.567 359.009C421.184 360.855 431.829 362.486 442.488 364.064C445.25 364.474 448.012 364.885 450.773 365.298C451.822 365.455 451.822 365.455 452.892 365.615C465.342 367.483 477.74 369.596 490.127 371.842C499.581 373.553 509.054 375.098 518.548 376.572C526.596 377.822 534.643 379.084 542.688 380.355C544.819 380.691 546.95 381.024 549.082 381.355C609.095 390.689 609.095 390.689 619.586 404.048C626.305 413.681 625.391 424.653 625.527 435.985C625.548 437.431 625.569 438.877 625.59 440.323C625.645 444.104 625.695 447.885 625.743 451.666C625.793 455.534 625.849 459.403 625.904 463.271C626.011 470.842 626.113 478.414 626.211 485.985C633.373 474.635 640.479 463.357 646.398 451.298C646.975 450.132 647.552 448.965 648.146 447.763C656.392 430.88 663.233 413.294 667.705 395.028C668.206 393.006 668.744 390.996 669.289 388.985C674.816 367.965 675.709 346.415 675.602 324.783C675.586 320.922 675.602 317.063 675.621 313.202C675.648 281.578 669.783 252.154 661.648 221.735C661.411 220.846 661.173 219.957 660.929 219.041C658.509 210.015 656.085 201.066 652.797 192.307C652.157 189.771 652.344 188.422 653.211 185.985C672.472 216.01 687.182 247.874 694.211 282.985C694.381 283.821 694.55 284.657 694.725 285.518C695.278 288.275 695.811 291.035 696.336 293.798C696.495 294.614 696.654 295.43 696.817 296.271C699.865 313.003 700.589 329.828 700.523 346.798C700.522 347.76 700.52 348.722 700.519 349.713C700.479 364.023 699.824 377.889 697.211 391.985C696.892 393.87 696.576 395.756 696.262 397.642C695.331 403.108 694.304 408.55 693.211 413.985C692.985 415.11 692.985 415.11 692.755 416.256C682.618 465.454 656.75 511.37 625.211 549.985C624.763 550.537 624.316 551.089 623.855 551.658C612.084 566.086 598.955 579.593 584.211 590.985C583.062 591.92 581.917 592.858 580.773 593.798C559.663 611.096 536.557 624.752 512.211 636.985C511.519 637.336 510.828 637.686 510.115 638.047C482.766 651.801 452.287 661.175 422.212 666.455C419.183 666.99 416.162 667.561 413.14 668.138C411.164 668.505 409.188 668.871 407.211 669.235C406.352 669.399 405.494 669.562 404.61 669.731C369.848 675.883 328.715 675.141 294.211 667.985C292.829 667.713 291.448 667.442 290.066 667.172C235.68 656.464 184.406 636.542 139.211 603.985C138.551 603.511 137.892 603.037 137.212 602.549C124.698 593.496 112.651 583.797 101.902 572.677C100.225 570.999 98.4783 569.494 96.6482 567.985C93.4991 565.339 90.8724 562.435 88.2146 559.302C86.2969 557.085 84.3135 554.942 82.3077 552.806C76.1423 546.211 70.5432 539.268 65.2107 531.985C64.7402 531.345 64.2697 530.704 63.785 530.044C31.8703 486.34 11.8656 437.303 3.21074 383.985C2.9236 382.235 2.9236 382.235 2.63066 380.449C1.11356 370.945 0.468387 361.601 0.210739 351.985C0.15974 350.188 0.15974 350.188 0.107711 348.354C-1.26752 291.823 10.4945 236.121 37.2107 185.985C37.576 185.288 37.9413 184.591 38.3177 183.873C50.5721 160.571 66.3831 139.386 83.7486 119.653C84.7852 118.471 85.8146 117.282 86.8389 116.09C91.0859 111.166 95.5377 106.507 100.148 101.923C100.813 101.255 101.477 100.586 102.162 99.8976C106.68 95.3884 111.356 91.1279 116.211 86.9855C116.838 86.4464 117.465 85.9073 118.111 85.3519C133.22 72.4446 149.252 60.8616 166.499 50.9737C168.156 50.0171 169.797 49.033 171.437 48.048C203.016 29.3567 238.353 15.6099 274.211 7.98545C275.067 7.79999 275.923 7.61452 276.805 7.42344C339.929 -6.16508 410.6 -1.35702 470.211 23.9855Z" fill="#A5151F"/>
<path d="M315.211 53.9854C315.871 53.9854 316.531 53.9854 317.211 53.9854C319.022 61.1474 319.693 68.0617 320.149 75.4229C320.483 79.9454 320.841 84.4657 321.211 88.9854C321.284 89.8925 321.356 90.7997 321.43 91.7344C322.474 103.44 325.51 111.795 334.211 119.985C335.293 120.774 336.39 121.543 337.5 122.29C342.78 126.091 345.729 129.083 346.834 135.735C347.773 145.443 347.549 155.251 347.211 164.985C348.133 165.134 349.055 165.282 350.004 165.435C356.144 166.489 356.144 166.489 359.211 168.985C359.657 171.035 359.657 171.035 359.817 173.72C359.884 174.797 359.951 175.875 360.021 176.985C360.086 178.318 360.149 179.652 360.211 180.985C360.25 181.782 360.289 182.578 360.329 183.399C360.699 191.087 361.021 198.778 361.336 206.469C361.458 209.41 361.584 212.352 361.711 215.294C361.747 216.193 361.782 217.092 361.819 218.018C361.997 222.103 362.224 225.997 363.211 229.985C364.511 229.862 365.81 229.738 367.149 229.61C367.88 229.541 368.61 229.471 369.364 229.399C369.973 229.263 370.583 229.126 371.211 228.985C372.467 226.473 372.321 224.743 372.317 221.935C372.331 220.926 372.346 219.917 372.362 218.878C372.386 216.753 372.392 214.628 372.377 212.503C372.539 204.82 372.539 204.82 375.559 201.071C380.176 198.075 385.398 196.031 390.461 193.923C391.447 193.502 392.433 193.081 393.449 192.647C395.412 191.813 397.379 190.988 399.35 190.172C401.228 189.393 403.099 188.599 404.963 187.787C413.441 184.178 413.441 184.178 418.211 184.985C420.965 186.384 420.965 186.384 423.774 188.36C424.809 189.086 425.844 189.812 426.91 190.56C432.433 194.587 437.864 198.728 443.211 202.985C443.772 203.348 444.332 203.71 444.909 204.084C447.264 205.713 448.995 207.135 449.715 209.97C449.875 212.317 449.834 214.574 449.711 216.923C449.701 217.709 449.691 218.494 449.68 219.304C449.444 228.12 449.444 228.12 447.211 231.985C443.974 234.312 440.481 236.003 436.899 237.735C435.855 238.257 434.812 238.779 433.737 239.316C430.571 240.892 427.392 242.439 424.211 243.985C422.567 244.808 420.924 245.632 419.281 246.458C381.12 265.393 340.42 279.612 300.191 293.419C288.975 297.158 288.975 297.158 278.211 301.985C277.881 302.975 277.551 303.965 277.211 304.985C315.492 300.306 351.673 287.436 387.211 272.985C387.898 272.706 388.585 272.427 389.293 272.139C420.555 259.391 450.803 244.57 480.211 227.985C481.146 227.462 482.08 226.938 483.043 226.399C485.915 224.788 488.783 223.17 491.649 221.548C492.937 220.821 492.937 220.821 494.252 220.08C499.124 217.296 503.704 214.328 508.211 210.985C504.039 206.434 499.342 203.199 494.211 199.798C488.268 195.789 482.362 191.755 476.649 187.423C475.637 186.658 474.625 185.894 473.582 185.106C471.357 183.116 470.267 181.741 469.211 178.985C476.083 172.33 476.083 172.33 480.578 171.603C486.968 172.126 493.11 174.337 499.171 176.32C503.341 177.68 507.523 178.996 511.711 180.298C512.572 180.577 513.433 180.855 514.32 181.142C515.14 181.396 515.96 181.65 516.805 181.911C517.534 182.142 518.263 182.373 519.014 182.612C523.349 183.349 526.822 181.868 530.637 179.919C531.433 179.516 532.229 179.113 533.049 178.698C533.866 178.277 534.682 177.856 535.524 177.423C536.36 176.998 537.196 176.573 538.057 176.136C540.111 175.091 542.162 174.041 544.211 172.985C541.025 169.524 537.452 167.017 533.524 164.485C527.067 160.255 520.735 155.876 514.447 151.4C511.069 148.997 507.683 146.613 504.246 144.294C503.637 143.881 503.027 143.468 502.399 143.042C500.755 141.932 499.106 140.83 497.457 139.728C496.345 138.865 496.345 138.865 495.211 137.985C495.211 137.325 495.211 136.665 495.211 135.985C497.047 134.224 497.047 134.224 499.586 132.298C500.398 131.655 501.21 131.011 502.047 130.349C510.183 126.843 520.742 131.109 528.961 133.048C531.697 133.68 534.435 134.306 537.172 134.931C537.889 135.095 538.606 135.259 539.344 135.428C547.573 137.306 555.816 139.116 564.069 140.882C565.734 141.24 567.397 141.601 569.06 141.965C585.971 145.842 585.971 145.842 602.211 140.985C602.943 140.599 603.675 140.213 604.429 139.814C606.664 138.606 608.877 137.365 611.086 136.11C612.562 135.279 614.039 134.448 615.516 133.618C616.277 133.19 617.037 132.762 617.821 132.321C626.68 127.37 635.634 122.591 644.584 117.807C645.93 117.086 647.276 116.365 648.621 115.643C650.595 114.582 652.571 113.526 654.547 112.47C655.708 111.848 656.868 111.226 658.064 110.586C667.152 105.964 677.573 105.061 687.473 107.931C691.96 110.063 695.942 112.446 698.211 116.985C699.109 121.603 698.885 125.583 696.336 129.61C689.818 137.27 680.083 141.918 671.336 146.548C670.212 147.147 669.088 147.747 667.929 148.364C649.43 158.169 630.671 167.404 611.652 176.157C601.27 180.937 590.972 185.88 580.684 190.86C576.513 192.879 572.334 194.88 568.145 196.86C551.4 204.777 534.765 212.72 519.318 222.994C512.761 227.346 505.963 231.163 499.07 234.949C496.231 236.532 493.447 238.206 490.649 239.86C481.813 244.91 472.612 249.181 463.398 253.489C460.216 254.983 457.045 256.498 453.875 258.017C422.742 272.827 390.611 285.251 358.211 296.985C358.211 297.315 358.211 297.645 358.211 297.985C367.313 296.06 376.37 294.039 385.336 291.548C385.99 291.367 386.643 291.186 387.316 291C424.188 280.573 459.89 267.027 494.211 249.985C495.026 249.582 495.84 249.179 496.679 248.764C504.608 244.983 504.608 244.983 512.262 240.708C515.363 239.559 517.01 240.055 520.211 240.985C523.857 242.77 527.341 244.799 530.836 246.86C531.777 247.403 532.718 247.946 533.688 248.505C536.214 249.973 538.732 251.439 541.211 252.985C541.909 253.389 542.607 253.793 543.326 254.209C545.211 255.985 545.211 255.985 545.692 258.624C545.683 259.683 545.674 260.742 545.665 261.834C545.665 263.635 545.665 263.635 545.664 265.473C545.644 266.77 545.623 268.067 545.602 269.403C545.594 270.744 545.589 272.085 545.585 273.426C545.569 276.953 545.53 280.479 545.486 284.005C545.445 287.605 545.427 291.204 545.406 294.804C545.364 301.865 545.295 308.925 545.211 315.985C546.001 316.047 546.79 316.108 547.604 316.171C553.038 316.606 558.43 317.064 563.817 317.923C564.901 318.096 565.986 318.268 567.104 318.446C568.191 318.624 569.278 318.802 570.399 318.985C571.529 319.163 572.658 319.341 573.823 319.524C582.083 320.857 582.083 320.857 583.211 321.985C583.325 325.116 583.375 328.225 583.379 331.356C583.382 332.308 583.386 333.259 583.389 334.24C583.394 336.263 583.397 338.287 583.396 340.31C583.399 343.379 583.417 346.446 583.436 349.515C583.439 351.483 583.441 353.451 583.442 355.419C583.449 356.327 583.456 357.234 583.463 358.17C583.442 364.319 582.626 370.004 581.211 375.985C573.306 375.337 565.55 374.114 557.739 372.763C555.755 372.424 553.771 372.086 551.787 371.747C549.687 371.389 547.588 371.029 545.488 370.668C538.835 369.525 532.18 368.393 525.525 367.261C524.029 367.006 522.533 366.752 521.038 366.497C508.188 364.31 495.329 362.189 482.461 360.11C461.549 356.726 440.661 353.208 419.774 349.673C413.154 348.553 406.534 347.433 399.914 346.313C399.094 346.175 398.273 346.036 397.428 345.893C381.033 343.121 364.636 340.365 348.236 337.626C345.482 337.167 342.729 336.706 339.977 336.245C336.145 335.603 332.313 334.964 328.481 334.325C327.281 334.125 326.081 333.925 324.844 333.719C318.858 332.729 312.868 331.772 306.867 330.867C305.686 330.689 304.505 330.511 303.289 330.328C301.075 329.996 298.861 329.67 296.646 329.348C277.762 326.536 277.762 326.536 274.211 322.985C274.077 320.97 274.007 318.95 273.965 316.931C273.932 315.675 273.899 314.42 273.865 313.126C273.803 310.488 273.748 307.85 273.694 305.212C273.325 291.52 272.436 278.563 262.024 268.61C250.173 258.801 235.672 259.093 221.083 260.138C216.762 260.567 212.49 261.255 208.211 261.985C207.567 262.093 206.922 262.2 206.259 262.31C199.411 263.452 192.588 264.703 185.781 266.067C184.856 266.251 183.931 266.434 182.977 266.623C181.185 266.979 179.394 267.343 177.605 267.715C172.035 268.822 166.891 269.151 161.211 268.985C160.296 258.321 159.812 247.669 159.544 236.97C159.519 235.952 159.519 235.952 159.493 234.914C159.459 233.553 159.426 232.192 159.393 230.831C159.285 226.651 159.06 222.495 158.762 218.325C158.661 216.379 158.561 214.432 158.461 212.485C158.373 211.615 158.284 210.745 158.193 209.849C158.094 207.192 158.202 205.451 159.211 202.985C162.467 199.896 166.235 198.017 170.211 195.985C171.435 195.329 172.656 194.67 173.877 194.009C177.162 192.246 180.47 190.535 183.791 188.841C185.843 187.794 187.891 186.739 189.938 185.683C193.682 183.755 197.444 181.868 201.211 179.985C202.108 179.519 203.005 179.053 203.929 178.573C204.69 178.197 205.451 177.822 206.235 177.435C206.85 177.122 207.465 176.81 208.099 176.488C214.104 175.059 219.63 177.785 224.938 180.294C225.648 180.621 226.359 180.948 227.091 181.284C229.344 182.322 231.59 183.372 233.836 184.423C236.091 185.467 238.346 186.509 240.602 187.551C242 188.197 243.397 188.846 244.793 189.497C247.527 190.771 250.245 191.998 253.066 193.068C256.19 194.404 256.894 195.884 258.211 198.985C258.526 201.731 258.721 204.301 258.774 207.048C258.663 213.41 258.663 213.41 261.211 218.985C263.397 219.685 263.397 219.685 265.836 219.735C266.653 219.792 267.471 219.849 268.313 219.907C268.939 219.933 269.566 219.959 270.211 219.985C271.286 214.691 271.394 209.547 271.457 204.169C271.49 202.252 271.523 200.334 271.557 198.417C271.604 195.413 271.649 192.409 271.688 189.405C271.728 186.492 271.779 183.581 271.832 180.669C271.841 179.773 271.849 178.877 271.858 177.954C272.019 169.82 272.019 169.82 274.211 165.985C276.738 164.841 279.211 164.235 281.899 163.563C284.586 161.729 284.752 161.103 285.531 158.048C286.31 153.559 286.246 149.215 286.131 144.676C285.909 130.194 285.909 130.194 291.165 124.248C293.757 121.71 296.438 119.322 299.211 116.985C308.062 108.877 308.815 100.452 309.912 89.0386C310.341 84.662 310.859 80.2973 311.38 75.9309C311.637 73.7632 311.885 71.5945 312.123 69.4246C312.729 64.0725 313.53 59.1071 315.211 53.9854Z" fill="#A5151F"/>
<path d="M465.148 382.614C466.721 382.879 468.294 383.143 469.866 383.407C472.365 383.827 474.863 384.246 477.362 384.667C486.304 386.172 495.249 387.656 504.195 389.14C509.734 390.059 515.274 390.981 520.813 391.902C525.541 392.688 530.27 393.474 534.998 394.258C539.682 395.035 544.366 395.814 549.05 396.594C550.81 396.886 552.571 397.179 554.332 397.47C556.761 397.873 559.189 398.277 561.617 398.682C562.332 398.8 563.046 398.918 563.782 399.039C566.961 399.571 570.101 400.132 573.211 400.985C572.881 401.975 572.551 402.965 572.211 403.985C569.706 405.234 569.706 405.234 566.293 406.489C565.666 406.724 565.04 406.959 564.394 407.201C563.012 407.717 561.627 408.229 560.242 408.736C557.174 409.859 554.116 411.009 551.057 412.157C549.395 412.781 547.733 413.404 546.071 414.025C536.097 417.76 526.186 421.655 516.273 425.548C514.333 426.309 512.393 427.07 510.453 427.831C507.462 429.003 504.472 430.176 501.482 431.35C494.069 434.259 486.652 437.158 479.234 440.056C466.551 445.011 453.877 449.989 441.211 454.985C440.266 455.358 439.322 455.73 438.348 456.113C433.105 458.181 427.866 460.259 422.635 462.354C421.094 462.97 419.552 463.583 418.008 464.192C398.634 471.3 398.634 471.3 385.227 485.993C382.844 491.906 382.114 497.837 381.93 504.189C381.892 505.333 381.855 506.478 381.816 507.657C381.746 510.058 381.675 512.459 381.605 514.86C381.568 516 381.531 517.139 381.492 518.314C381.462 519.354 381.432 520.395 381.4 521.467C381.211 523.985 381.211 523.985 380.211 525.985C374.53 526.225 369.619 525.362 364.113 524.009C363.25 523.803 362.387 523.597 361.498 523.385C358.713 522.719 355.931 522.04 353.148 521.36C351.227 520.897 349.305 520.434 347.383 519.971C337.103 517.483 326.856 514.909 316.675 512.038C309.914 510.139 303.107 508.479 296.273 506.86C288.612 505.045 280.974 503.205 273.383 501.114C269.822 500.136 266.244 499.23 262.664 498.325C260.284 497.712 257.904 497.099 255.523 496.485C254.375 496.201 253.226 495.916 252.043 495.622C250.96 495.34 249.877 495.058 248.762 494.767C247.789 494.52 246.816 494.273 245.814 494.019C242.693 492.78 241.199 491.699 239.211 488.985C238.693 485.936 238.693 485.936 238.68 482.384C238.675 481.088 238.669 479.793 238.664 478.458C238.672 477.784 238.681 477.11 238.689 476.416C238.711 474.387 238.69 472.362 238.664 470.333C238.703 460.521 239.878 452.58 246.398 444.985C297.963 397.852 397.764 371.202 465.148 382.614Z" fill="#FEFEFE"/>
<path d="M102.211 499.985C108.678 500.709 114.812 502.352 121.086 504.048C121.708 504.215 122.33 504.382 122.971 504.554C149.96 511.806 176.826 519.518 203.723 527.104C211.343 529.253 218.964 531.401 226.586 533.548C227.229 533.729 227.873 533.91 228.535 534.097C258.608 542.567 288.715 550.908 318.826 559.237C322.105 560.144 325.384 561.052 328.662 561.961C336.112 564.027 343.564 566.085 351.024 568.116C354.401 569.036 357.777 569.961 361.153 570.887C362.752 571.324 364.352 571.759 365.952 572.191C368.149 572.784 370.344 573.386 372.538 573.989C373.783 574.328 375.028 574.666 376.31 575.015C379.211 575.985 379.211 575.985 381.211 577.985C381.451 579.82 381.451 579.82 381.438 582.068C381.438 582.909 381.438 583.749 381.438 584.616C381.427 585.524 381.417 586.432 381.406 587.368C381.402 588.762 381.402 588.762 381.398 590.185C381.386 593.16 381.361 596.135 381.336 599.11C381.326 601.125 381.317 603.139 381.309 605.153C381.287 610.097 381.252 615.041 381.211 619.985C356.176 620.445 331.942 620.281 307.211 615.985C306.29 615.831 305.369 615.676 304.42 615.516C298.638 614.523 292.924 613.315 287.211 611.985C286.143 611.739 285.075 611.493 283.974 611.239C261.017 605.887 239.706 598.6 218.211 588.985C217.473 588.66 216.735 588.334 215.974 587.998C190.359 576.646 165.981 561.594 144.211 543.985C143.599 543.491 142.987 542.996 142.357 542.486C130.011 532.406 118.436 521.222 108.211 508.985C107.636 508.338 107.061 507.691 106.469 507.024C105.909 506.393 105.35 505.761 104.773 505.11C104.033 504.279 104.033 504.279 103.277 503.431C102.211 501.985 102.211 501.985 102.211 499.985Z" fill="#FEFDFD"/>
<path d="M342.129 364.412C345.528 364.892 348.929 365.352 352.331 365.804C355.542 366.232 358.751 366.672 361.961 367.11C363.15 367.268 364.34 367.427 365.566 367.59C366.66 367.743 367.755 367.897 368.883 368.056C370.323 368.253 370.323 368.253 371.792 368.454C374.211 368.985 374.211 368.985 377.211 370.985C370.915 373.633 364.683 375.799 358.086 377.548C279.128 397.44 279.128 397.44 214.648 441.11C212.382 445.918 212.458 451.22 212.292 456.445C212.191 459.597 212.064 462.748 211.937 465.899C211.675 472.594 211.436 479.289 211.211 485.985C201.7 483.83 192.27 481.504 182.886 478.844C177.912 477.44 172.921 476.147 167.898 474.923C146.889 469.743 146.889 469.743 144.211 465.985C143.924 463.371 143.814 461 143.848 458.388C143.847 457.639 143.847 456.89 143.846 456.118C143.848 454.53 143.858 452.942 143.875 451.355C143.898 448.956 143.895 446.558 143.889 444.159C143.928 421.947 143.928 421.947 150.125 415.677C183.105 388.935 239.472 375.488 279.898 364.298C280.734 364.066 281.57 363.834 282.431 363.595C302.225 358.372 322.221 361.595 342.129 364.412Z" fill="#FEFDFD"/>
<path d="M206.125 310.79C219.428 310.334 219.428 310.334 225.211 314.985C226.18 315.666 227.15 316.347 228.148 317.048C237.333 325.136 249.509 343.929 250.398 356.673C247.836 361.662 240.59 363.269 235.52 364.931C233.23 365.659 230.939 366.386 228.648 367.11C214.507 371.67 200.638 376.898 186.773 382.235C185.766 382.623 184.758 383.01 183.72 383.41C180.78 384.542 177.841 385.677 174.902 386.813C173.509 387.351 173.509 387.351 172.087 387.899C167.901 389.52 163.736 391.169 159.609 392.937C158.916 393.229 158.223 393.522 157.509 393.824C155.697 394.595 153.893 395.385 152.09 396.176C149.211 396.985 149.211 396.985 146.958 396.283C144.363 394.356 142.503 392.049 140.461 389.548C140.021 389.011 139.581 388.475 139.128 387.922C136.406 384.569 133.838 381.133 131.336 377.61C122.781 365.692 113.335 354.055 100.211 346.985C97.0018 346.734 97.0018 346.734 94.2109 346.985C96.123 351.679 98.2391 355.904 100.934 360.216C101.453 361.052 101.453 361.052 101.983 361.906C103.075 363.664 104.174 365.419 105.273 367.173C106.376 368.938 107.476 370.705 108.575 372.472C109.568 374.068 110.565 375.662 111.563 377.256C115.211 383.298 115.211 383.298 115.211 387.985C112.007 388.332 110.568 388.225 107.852 386.403C97.4629 376.711 84.4252 363.913 82.7734 349.048C82.8724 344.296 84.8828 342.234 88.2109 338.985C90.6715 337.755 92.8066 337.866 95.5139 337.746C104.704 337.194 111.978 334.662 120.273 330.735C131.76 325.317 143.024 322.144 155.43 319.573C158.682 318.886 161.905 318.105 165.133 317.309C178.614 313.996 192.248 311.483 206.125 310.79Z" fill="#FEFDFD"/>
<path d="M581.211 516.985C583.392 534.941 583.392 534.941 580.127 540.996C577.103 544.592 573.292 547.1 569.35 549.599C567.141 551.03 565.065 552.569 562.977 554.169C552.258 562.326 540.909 569.334 529.211 575.985C528.269 576.522 527.328 577.058 526.358 577.611C507.481 588.29 488.132 596.88 467.836 604.485C466.151 605.118 466.151 605.118 464.432 605.763C458.398 607.978 452.523 609.763 446.211 610.985C445.869 606.237 445.582 601.489 445.344 596.734C445.256 595.118 445.153 593.503 445.035 591.889C444.092 578.803 444.092 578.803 446.405 575.047C448.594 573.572 450.709 572.838 453.211 571.985C455.063 571.152 456.915 570.318 458.761 569.472C462.487 567.786 466.259 566.208 470.023 564.61C471.675 563.903 473.326 563.196 474.977 562.488C479.227 560.667 483.479 558.853 487.732 557.042C493.778 554.465 499.819 551.875 505.86 549.287C507.305 548.668 508.75 548.05 510.194 547.431C520.82 542.883 531.432 538.302 542.023 533.673C543.015 533.239 543.015 533.239 544.027 532.797C553.679 528.575 563.291 524.271 572.843 519.828C573.663 519.449 574.483 519.071 575.328 518.681C576.036 518.351 576.743 518.021 577.472 517.681C579.211 516.985 579.211 516.985 581.211 516.985Z" fill="#FEFCFC"/>
<path d="M95.5861 397.048C96.5335 397.361 97.4808 397.674 98.4569 397.996C104.926 400.155 111.362 402.411 117.774 404.735C118.552 405.017 119.33 405.298 120.132 405.587C124.094 407.059 127.658 408.65 131.211 410.985C130.754 412.527 130.295 414.069 129.836 415.61C129.581 416.469 129.326 417.327 129.063 418.212C128.211 420.985 128.211 420.985 127.182 423.632C126.036 427.592 125.878 431.325 125.832 435.411C125.815 436.199 125.798 436.988 125.781 437.8C125.728 440.299 125.687 442.798 125.649 445.298C125.605 447.815 125.558 450.333 125.506 452.85C125.474 454.412 125.447 455.975 125.426 457.537C125.323 462.874 125.323 462.874 124.211 463.985C117.538 463.513 111.342 462.165 104.899 460.423C103.93 460.166 102.961 459.908 101.962 459.643C91.1833 456.754 80.4483 453.702 69.7228 450.622C68.7066 450.33 67.6904 450.039 66.6435 449.738C64.2111 448.985 64.2111 448.985 62.2111 447.985C62.1549 442.339 62.1584 436.696 62.2033 431.05C62.2086 428.97 62.1949 426.891 62.1642 424.812C61.8928 406.19 61.8928 406.19 65.1408 400.759C67.4325 398.693 69.432 397.303 72.2111 395.985C72.8344 395.639 73.4578 395.293 74.1 394.936C81.0269 391.816 88.8335 394.746 95.5861 397.048Z" fill="#FEFCFC"/>
<path d="M598.211 467.985C598.211 471.615 598.211 475.245 598.211 478.985C589.298 483.613 580.205 487.694 570.989 491.671C567.551 493.155 564.115 494.647 560.68 496.137C558.877 496.92 557.074 497.702 555.271 498.484C546.853 502.135 538.453 505.827 530.055 509.524C512.546 517.23 495.009 524.869 477.461 532.485C476.284 532.997 475.107 533.508 473.894 534.034C470.547 535.488 467.199 536.94 463.852 538.392C462.347 539.045 462.347 539.045 460.811 539.712C459.881 540.115 458.951 540.517 457.993 540.933C457.186 541.282 456.38 541.632 455.548 541.993C454.777 542.32 454.006 542.648 453.211 542.985C452.37 543.358 451.529 543.73 450.662 544.114C448.211 544.985 448.211 544.985 444.211 544.985C443.993 543.429 443.839 541.864 443.711 540.298C443.618 539.428 443.525 538.558 443.43 537.661C444.516 533.942 446.334 533.123 449.633 531.27C454.204 528.992 458.866 526.953 463.572 524.969C466.915 523.56 470.248 522.126 473.582 520.696C474.286 520.395 474.989 520.094 475.715 519.784C483.686 516.366 491.604 512.833 499.523 509.298C517.739 501.177 535.997 493.155 554.265 485.153C558.335 483.37 562.404 481.584 566.473 479.797C569.474 478.48 572.475 477.164 575.477 475.848C576.87 475.237 578.263 474.625 579.656 474.013C581.557 473.179 583.458 472.345 585.359 471.513C586.423 471.046 587.487 470.579 588.583 470.098C592.134 468.594 594.286 467.985 598.211 467.985Z" fill="#FCF9F9"/>
<path d="M627.211 175.985C627.851 185.573 626.241 194.771 624.452 204.148C624.124 205.92 623.818 207.695 623.534 209.474C621.179 224.209 621.179 224.209 616.482 228.448C613.406 230.031 610.548 231.093 607.211 231.985C606.44 232.239 605.668 232.493 604.874 232.754C602.961 233.36 602.961 233.36 600.211 233.985C596.949 224.605 593.866 215.2 591.273 205.61C591.05 204.809 590.827 204.007 590.597 203.181C588.83 196.472 588.83 196.472 590.211 192.985C595.869 187.881 604.165 184.928 610.961 181.673C612.084 181.123 613.206 180.573 614.363 180.007C615.982 179.229 615.982 179.229 617.633 178.435C618.608 177.964 619.584 177.493 620.589 177.008C623.211 175.985 623.211 175.985 627.211 175.985Z" fill="#A61721"/>
<path d="M411.211 489.985C412.531 489.985 413.851 489.985 415.211 489.985C416.418 494.287 416.366 498.492 416.372 502.929C416.377 503.832 416.382 504.735 416.387 505.665C416.402 508.648 416.408 511.631 416.414 514.614C416.42 516.686 416.425 518.759 416.431 520.831C416.442 525.173 416.448 529.514 416.451 533.856C416.457 539.427 416.481 544.998 416.509 550.569C416.528 554.847 416.533 559.125 416.534 563.404C416.537 565.458 416.545 567.513 416.559 569.567C416.576 572.435 416.574 575.303 416.567 578.171C416.577 579.024 416.586 579.876 416.595 580.755C416.554 586.538 416.554 586.538 414.875 588.727C413.211 589.985 413.211 589.985 410.211 589.985C410.188 577.39 410.17 564.795 410.159 552.199C410.154 546.351 410.147 540.503 410.135 534.655C410.125 529.014 410.119 523.373 410.116 517.732C410.114 515.577 410.111 513.422 410.105 511.267C410.098 508.254 410.097 505.242 410.097 502.23C410.094 501.334 410.09 500.438 410.086 499.514C410.088 498.694 410.089 497.874 410.091 497.029C410.09 496.316 410.089 495.604 410.088 494.869C410.211 492.985 410.211 492.985 411.211 489.985Z" fill="#FDFBFB"/>
<path d="M309.211 158.985C310.201 159.315 311.191 159.645 312.211 159.985C313.059 172.865 313.387 185.692 313.414 198.599C313.417 199.536 313.42 200.473 313.423 201.438C313.437 206.372 313.447 211.305 313.451 216.239C313.457 221.319 313.481 226.398 313.509 231.477C313.528 235.409 313.533 239.34 313.534 243.272C313.537 245.146 313.545 247.021 313.559 248.895C313.576 251.502 313.574 254.109 313.567 256.717C313.577 257.484 313.586 258.252 313.595 259.042C313.56 263.502 313.048 266.474 310.211 269.985C309.551 269.985 308.891 269.985 308.211 269.985C308.187 256.103 308.17 242.221 308.159 228.339C308.154 221.894 308.147 215.448 308.135 209.002C308.125 202.784 308.119 196.566 308.116 190.348C308.114 187.974 308.111 185.599 308.105 183.224C308.098 179.903 308.097 176.583 308.097 173.262C308.094 172.276 308.09 171.289 308.086 170.273C308.088 169.368 308.089 168.462 308.091 167.529C308.089 166.35 308.089 166.35 308.088 165.149C308.211 162.976 308.612 161.073 309.211 158.985Z" fill="#F8EEEE"/>
<path d="M43.2107 324.985C44.5307 324.985 45.8507 324.985 47.2107 324.985C48.4684 334.733 48.3629 344.499 48.3411 354.308C48.3358 357.149 48.341 359.99 48.3474 362.831C48.3593 391.54 48.3593 391.54 46.2107 397.985C44.5607 397.655 42.9107 397.325 41.2107 396.985C41.1644 388.041 41.1289 379.096 41.1071 370.151C41.0967 365.998 41.0825 361.845 41.0598 357.692C41.0381 353.685 41.0262 349.678 41.021 345.671C41.0173 344.141 41.01 342.611 40.9993 341.081C40.9848 338.941 40.9827 336.8 40.9837 334.66C40.9792 333.441 40.9748 332.222 40.9702 330.966C41.2107 327.985 41.2107 327.985 43.2107 324.985Z" fill="#FAF2F3"/>
<path d="M212.211 209.985C214.191 210.48 214.191 210.48 216.211 210.985C217.554 215.68 217.395 220.261 217.398 225.11C217.411 226.01 217.423 226.91 217.435 227.837C217.449 234.109 216.666 239.888 215.211 245.985C214.221 245.985 213.231 245.985 212.211 245.985C210.738 243.039 211.081 240.399 211.078 237.114C211.077 236.436 211.076 235.758 211.075 235.059C211.074 233.624 211.076 232.19 211.081 230.755C211.086 228.56 211.081 226.366 211.074 224.171C211.075 222.777 211.076 221.383 211.078 219.989C211.079 218.719 211.08 217.449 211.081 216.14C211.211 212.985 211.211 212.985 212.211 209.985Z" fill="#F5E6E7"/>
<path d="M360.211 294.985C361.201 295.315 362.191 295.645 363.211 295.985C363.211 296.645 363.211 297.305 363.211 297.985C358.756 298.48 358.756 298.48 354.211 298.985C356.175 297.48 357.994 296.094 360.211 294.985Z" fill="#EFD5D6"/>
</svg>
