<svg width="512" height="512" viewBox="0 0 512 512" fill="none" xmlns="http://www.w3.org/2000/svg" role="img" aria-label="BedTrip icon">
  <defs>
    <linearGradient id="bg" x1="0" y1="0" x2="512" y2="512" gradientUnits="userSpaceOnUse">
      <stop offset="0" stop-color="#0F6D7A"/>
      <stop offset="1" stop-color="#0C4B57"/>
    </linearGradient>
    <linearGradient id="accent" x1="128" y1="160" x2="416" y2="352" gradientUnits="userSpaceOnUse">
      <stop offset="0" stop-color="#F5D547"/>
      <stop offset="1" stop-color="#F1A43C"/>
    </linearGradient>
  </defs>

  <rect x="0" y="0" width="512" height="512" rx="128" fill="url(#bg)"/>

  <!-- Pin shape -->
  <path d="M256 96C196.4 96 148 144.4 148 204C148 288 256 416 256 416C256 416 364 288 364 204C364 144.4 315.6 96 256 96Z" fill="url(#accent)"/>

  <!-- Bed inside the pin -->
  <rect x="196" y="214" width="120" height="52" rx="12" fill="#0C2B33"/>
  <rect x="196" y="200" width="48" height="32" rx="10" fill="#0C2B33"/>
  <rect x="196" y="266" width="120" height="26" rx="10" fill="#0C2B33"/>
  <rect x="196" y="236" width="120" height="20" rx="10" fill="#0F6D7A"/>
</svg>
